<svg width="33" height="33" viewBox="0 0 33 33" fill="none" xmlns="http://www.w3.org/2000/svg">
<path d="M16.5 31.75C24.9223 31.75 31.75 24.9223 31.75 16.5C31.75 8.07766 24.9223 1.25 16.5 1.25C8.07766 1.25 1.25 8.07766 1.25 16.5C1.25 24.9223 8.07766 31.75 16.5 31.75Z" stroke="#7A9CA5" stroke-width="2.5"/>
<path d="M24.766 12.1845C24.8915 13.4891 24.4194 14.7972 23.4533 15.8212L17.6714 21.9677L9.70743 22.7342L9.03713 15.7699L14.8292 9.6306C15.7952 8.6066 17.176 7.95071 18.6678 7.80713L23.8855 7.93206L24.766 12.1845Z" stroke="#7A9CA5" stroke-width="2.5" stroke-linecap="round" stroke-linejoin="round"/>
<path d="M20 12L5 27" stroke="#7A9CA5" stroke-width="2.5" stroke-linecap="round" stroke-linejoin="round"/>
<path d="M21 18H14" stroke="#7A9CA5" stroke-width="2.5" stroke-linecap="round" stroke-linejoin="round"/>
<path d="M20 12H13" stroke="#7A9CA5" stroke-width="2.5" stroke-linecap="round" stroke-linejoin="round"/>
</svg>
